<svg xmlns="http://www.w3.org/2000/svg" viewBox="0 0 240 240" width="240" height="240"><rect width="240" height="240" rx="18" fill="#1D1D1D" stroke="#2A2A2A"></rect><polygon points="120.0,66.0 178.0,95.0 120.0,124.0 62.0,95.0" fill="#F0A048"></polygon><polygon points="62.0,95.0 120.0,124.0 120.0,186.0 62.0,157.0" fill="#F57C12"></polygon><polygon points="120.0,124.0 178.0,95.0 178.0,157.0 120.0,186.0" fill="#D9650A"></polygon><g transform="translate(0.7,0.7)"><polyline points="93.3,95.0 120.0,81.6 146.7,95.0 120.0,108.4 103.7,100.2 120.0,92.0 127.4,95.7" fill="none" stroke="#8A3C05" stroke-width="6.5" stroke-linejoin="miter" stroke-linecap="butt"></polyline></g><g transform="translate(0.7,0.7)"><polyline points="76.4,148.8 76.4,117.6 105.6,132.2 105.6,163.4 87.8,154.5 87.8,135.4 95.9,139.5" fill="none" stroke="#8A3C05" stroke-width="6.5" stroke-linejoin="miter" stroke-linecap="butt"></polyline></g><g transform="translate(0.7,0.7)"><polyline points="134.4,163.4 134.4,132.2 163.6,117.6 163.6,148.8 145.8,157.7 145.8,138.7 153.9,134.6" fill="none" stroke="#8A3C05" stroke-width="6.5" stroke-linejoin="miter" stroke-linecap="butt"></polyline></g><polyline points="93.3,95.0 120.0,81.6 146.7,95.0 120.0,108.4 103.7,100.2 120.0,92.0 127.4,95.7" fill="none" stroke="#FFF3E0" stroke-width="6.5" stroke-linejoin="miter" stroke-linecap="butt"></polyline><polyline points="76.4,148.8 76.4,117.6 105.6,132.2 105.6,163.4 87.8,154.5 87.8,135.4 95.9,139.5" fill="none" stroke="#FFF3E0" stroke-width="6.5" stroke-linejoin="miter" stroke-linecap="butt"></polyline><polyline points="134.4,163.4 134.4,132.2 163.6,117.6 163.6,148.8 145.8,157.7 145.8,138.7 153.9,134.6" fill="none" stroke="#FFF3E0" stroke-width="6.5" stroke-linejoin="miter" stroke-linecap="butt"></polyline></svg>